<svg width="420" height="420" viewBox="0 0 420 420" fill="none" xmlns="http://www.w3.org/2000/svg">
<path d="M65.3878 234.063C92.1924 198.636 96.4909 186.32 100.117 167.194L331.666 151.372C342.514 191.723 333.904 193.324 359.563 210.699C341.858 211.301 336.655 202.431 336.655 202.431C347.947 223.844 371.437 232.487 340.822 277.401C339.848 261.646 334.854 255.846 322.578 250.047C350.053 276.888 320.79 285.529 310.565 323.698C310.07 306.787 308.531 300.868 301.007 293.161C314.481 328.531 277.089 327.242 283.151 355.527C269.444 346.187 271.868 329.216 271.868 329.216C271.868 329.216 267.812 347.119 244.982 355.403C243.073 343.536 250.626 334.897 247.422 333.661C230.747 351.705 232.518 348.239 226.52 366.531C219.977 349.778 203.612 353.213 209.157 336.855C202.546 356.359 198.763 346.748 192.796 360.549C175.588 338.72 176.937 349.598 178.047 327.415C174.19 338.798 166.686 335.062 165.754 348.583C163.141 301.56 147.055 340.306 132.417 288.984C132.045 307.524 125.502 300.873 134.159 320.314C116.074 293.259 94.2164 296.367 111.048 252.851C99.2888 263.908 96.0249 272.231 96.3312 290.989C78.4124 267.059 62.7463 252.169 92.6932 225.531C88.1551 219.61 75.4789 236.84 65.3878 234.063Z" fill="#FEDADA" stroke="#F40508" stroke-width="4.97755" stroke-linecap="round" stroke-linejoin="round"/>
<path d="M329.499 215.663C320.624 213.839 309.83 228.06 309.83 228.06L308.494 263.566C308.494 263.566 312.1 269 315.631 270.766C322.151 274.027 327.645 271.167 333.989 267.573C346.121 260.698 348.873 246.02 346.727 233.986C344.997 224.284 339.069 217.63 329.499 215.663Z" fill="#FCFFFF" stroke="#F40508" stroke-width="4.97755" stroke-linecap="round" stroke-linejoin="round"/>
<path d="M113.431 227.671C122.05 224.875 134.353 237.813 134.353 237.813L139.616 272.952C139.616 272.952 136.634 278.752 133.32 280.899C127.202 284.862 121.424 282.628 114.722 279.759C101.902 274.271 97.5411 259.988 98.3403 247.791C98.9846 237.957 104.139 230.687 113.431 227.671Z" fill="#FCFFFF" stroke="#F40508" stroke-width="4.97755" stroke-linecap="round" stroke-linejoin="round"/>
<path d="M136.352 258.798C129.872 218.173 127.352 197.847 130.506 153.617C133.66 109.387 296.98 99.4683 303.384 144.009C309.788 188.549 311.231 208.1 309.229 249.19C307.165 291.558 281.074 323.325 228.744 325.778C171.104 328.48 142.904 299.883 136.352 258.798Z" fill="#FCFFFF" stroke="#F40508" stroke-width="4.97755" stroke-linecap="round"/>
<path d="M231.028 260.832C236.141 256.9 251.215 265.603 232.753 271.68" stroke="#F40508" stroke-width="4.97755" stroke-linecap="round"/>
<path d="M194.289 281.394C196.009 283.73 197.226 287.797 219.668 283.631C247.719 278.425 246.196 291.417 264.146 281.159" stroke="#F40508" stroke-width="4.97755" stroke-linecap="round"/>
<ellipse cx="276.114" cy="230.033" rx="19.5903" ry="21.8384" transform="rotate(-3.18111 276.114 230.033)" fill="#F40508"/>
<path d="M296.645 233.394C297.423 247.394 287.386 259.078 274.551 259.791C267.874 260.162 260.884 258.371 255.617 254.464C250.425 250.611 246.811 244.645 246.786 236.296C246.761 227.667 249.428 221.244 253.563 216.898C257.71 212.539 263.526 210.065 270.159 209.697C283.183 208.973 295.878 219.587 296.645 233.394Z" stroke="#F40508" stroke-width="4.97755"/>
<path d="M268.577 209.709C271.594 207.57 272.11 206.093 270.093 202.764C271.589 205.463 273.244 207.128 272.089 209.332M277.404 210.7C282.414 209.649 282.864 207.954 281.862 204.085C282.533 207.064 284.152 208.853 281.692 211.532M289.015 216.56C296.44 215.488 296.914 213.165 296.883 208.61C297.589 214.05 299.016 217.662 292.87 219.376" stroke="#F40508" stroke-width="4.97755" stroke-linecap="round" stroke-linejoin="round"/>
<path d="M284.809 258.11C286.406 258.563 286.846 259.11 286.491 260.821C286.72 259.455 287.17 258.502 286.351 257.743M288.395 256.368C290.672 256.062 291.116 256.711 291.272 258.498C291.109 257.138 291.526 256.138 290.084 255.373M292.428 252.149C295.73 251.489 296.279 252.401 296.948 254.333C296.431 251.926 296.494 250.184 293.637 250.38" stroke="#F40508" stroke-width="2.98653" stroke-linecap="round" stroke-linejoin="round"/>
<path d="M207.503 238.349C208.281 252.349 198.243 264.033 185.409 264.746C172.307 265.474 159.641 256.817 156.969 240.882C155.69 233.257 158.661 226.963 163.711 222.373C168.821 217.728 175.982 214.932 182.62 214.563C195.454 213.849 206.725 224.349 207.503 238.349Z" stroke="#F40508" stroke-width="4.97755"/>
<ellipse cx="188.896" cy="234.879" rx="19.5903" ry="21.8384" transform="rotate(-3.18111 188.896 234.879)" fill="#F40508"/>
<path d="M181.27 214.562C178.034 212.77 177.357 211.359 178.994 207.827C177.805 210.675 176.345 212.513 177.737 214.576M172.607 216.525C167.511 216.035 166.876 214.4 167.443 210.444C167.106 213.479 165.696 215.437 168.437 217.827M161.717 223.635C154.218 223.393 153.49 221.136 153.016 216.606C152.918 222.091 151.899 225.838 158.197 226.861" stroke="#F40508" stroke-width="4.97755" stroke-linecap="round" stroke-linejoin="round"/>
<path d="M172.416 264.041C170.879 264.667 170.503 265.26 171.045 266.921C170.666 265.589 170.113 264.692 170.843 263.847M168.66 262.707C166.363 262.655 165.993 263.35 166.036 265.143C166.047 263.772 165.522 262.825 166.87 261.905M164.183 258.961C160.829 258.671 160.384 259.638 159.933 261.632C160.18 259.182 159.925 257.458 162.786 257.336" stroke="#F40508" stroke-width="2.98653" stroke-linecap="round" stroke-linejoin="round"/>
<path d="M226.086 293.095C230.625 294.238 233.425 295.158 239.311 293.763" stroke="#F40508" stroke-width="4.97755" stroke-linecap="round" stroke-linejoin="round"/>
<path d="M230.948 208.926C217.064 193.953 214.089 180.074 211.257 152.497C204.555 165.892 200.903 173.471 201.653 191.754C183.004 179.184 184.564 169.138 189.826 150.601C172.816 165.781 164.186 174.768 164.168 198.888C155.072 190.286 155.199 179.773 158.775 157.378C146.888 182.833 136.62 212.219 150.754 235.212C136.561 233.794 136.49 214.547 135.558 204.126C127.402 221.104 132.507 235.725 143.205 250.842C118.291 241.928 108.775 222.088 112.665 186.036C107.636 198.928 102.129 204.076 89.9449 211.431C100.108 197.397 95.3311 172.786 90.9695 159.182C80.7862 127.421 97.2749 116.122 110.332 103.669C94.0009 111.166 82.5318 119.144 74.6057 103.862C74.3568 103.561 74.1821 103.214 74.0876 102.82C74.2586 103.179 74.4313 103.526 74.6057 103.862C79.2738 109.51 110.072 99.0507 128.903 84.3979C139.65 76.0358 148.441 74.9376 161.959 73.3009C179.704 71.1524 207.23 80.0447 207.23 80.0447C207.23 80.0447 208.752 66.623 213.399 59.7791C220.659 49.0888 242.554 44.1287 242.554 44.1287C221.973 55.7784 221.692 64.3088 220.098 79.3295C220.098 79.3295 254.014 61.6185 275.532 66.9887C295.166 71.8884 304.415 82.5872 316.313 98.9557C330.121 117.953 333.849 132.838 334.373 156.317C334.743 172.953 350.753 188.518 350.753 188.518C336.409 192.963 327.053 171.035 327.053 171.035C332.741 208.763 318.173 234.993 297.415 238.565C309.501 210.393 310.122 196.009 305.482 171.672C300.109 189.802 296.107 197.538 282.7 195.948C289.15 183.511 288.37 173.385 285.139 154.003C280.724 170.331 277.44 178.684 263.907 185.991C264.598 166.933 258.868 161.683 248.571 152.387C250.113 177.867 248.025 190.96 230.948 208.926Z" fill="#FEDADA"/>
<path d="M211.257 152.497C214.089 180.074 217.064 193.953 230.948 208.926C248.025 190.96 250.113 177.867 248.571 152.387C258.868 161.683 264.598 166.933 263.907 185.991C277.44 178.684 280.724 170.331 285.139 154.003C288.37 173.385 289.15 183.511 282.7 195.948C296.107 197.538 300.109 189.802 305.482 171.672C310.122 196.009 309.501 210.393 297.415 238.565C318.173 234.993 332.741 208.763 327.053 171.035C327.053 171.035 336.409 192.963 350.753 188.518C350.753 188.518 334.743 172.953 334.373 156.317C333.849 132.838 330.121 117.953 316.313 98.9557C304.415 82.5872 295.166 71.8885 275.532 66.9887C254.014 61.6185 220.098 79.3295 220.098 79.3295C221.692 64.3088 221.973 55.7784 242.554 44.1287C242.554 44.1287 220.659 49.0888 213.399 59.7791C208.752 66.623 207.23 80.0447 207.23 80.0447C207.23 80.0447 179.704 71.1524 161.959 73.3009C148.441 74.9376 139.65 76.0358 128.903 84.3979C109.068 99.832 75.955 110.614 74.0876 102.82C82.0294 119.495 93.6416 111.331 110.332 103.669C97.2749 116.122 80.7862 127.421 90.9695 159.182C95.3311 172.786 100.108 197.397 89.9449 211.431C102.129 204.076 107.636 198.928 112.665 186.036C108.775 222.088 118.291 241.928 143.205 250.842C132.507 235.725 127.402 221.104 135.558 204.126C136.49 214.547 136.561 233.794 150.754 235.212C136.62 212.219 146.888 182.833 158.775 157.378C155.199 179.773 155.072 190.286 164.168 198.888C164.186 174.768 172.816 165.781 189.826 150.601C184.564 169.138 183.004 179.184 201.653 191.754C200.903 173.471 204.555 165.892 211.257 152.497Z" stroke="#F40508" stroke-width="4.97755" stroke-linecap="round" stroke-linejoin="round"/>
<path d="M244.185 197.324C242.722 196.422 242.65 195.626 243.321 194.137C246.17 187.818 286.639 172.709 292.654 176.604C294.01 177.482 294.077 178.238 293.48 179.652C290.823 185.947 250.411 201.165 244.185 197.324Z" fill="#F40508"/>
<path d="M201.314 199.515C202.668 198.456 202.651 197.657 201.819 196.252C198.288 190.288 156.393 179.756 150.847 184.293C149.597 185.316 149.614 186.075 150.364 187.415C153.702 193.376 195.552 204.022 201.314 199.515Z" fill="#F40508"/>
</svg>
