<svg width="1020" height="210" viewBox="0 0 1020 210" fill="none" xmlns="http://www.w3.org/2000/svg">
<path fill-rule="evenodd" clip-rule="evenodd" d="M671.004 168.321C677.163 184.874 682.071 198.636 685.728 209.608H760.505L679.088 9.28687e-05H572.84L492 209.608H564.468L578.903 168.321H671.004ZM625.88 57.7437C625.88 78.7118 608.882 95.7097 587.914 95.7097C608.882 95.7097 625.88 112.708 625.88 133.676C625.88 112.708 642.878 95.7097 663.846 95.7097C642.878 95.7097 625.88 78.7118 625.88 57.7437Z" fill="#222222"/>
<path d="M1019.54 0.288712C1018.19 32.8173 1017.51 67.6557 1017.51 104.804C1017.51 142.144 1018.19 177.079 1019.54 209.608H916.175L846.306 51.9688L851.503 209.608H777.303C778.843 172.267 779.613 137.332 779.613 104.804C779.613 72.4676 778.843 37.6293 777.303 0.288712H883.55L953.708 162.258L948.8 0.288712H1019.54Z" fill="#222222"/>
<path d="M225.198 53.9898H68.1369V84.305C77.9532 84.4974 92.6777 84.5937 112.31 84.5937C146.186 84.5937 180.64 84.0163 215.671 82.8614V139.45C180.64 138.102 143.684 137.429 104.804 137.429C88.6357 137.429 76.4134 137.525 68.1369 137.717V209.608H0C1.53982 172.267 2.30972 137.332 2.30972 104.804C2.30972 72.2752 1.53982 37.3406 0 0H225.198V53.9898Z" fill="#222222"/>
<path d="M480.236 69.8692C480.236 86.6147 476.097 100.762 467.821 112.31C459.737 123.859 445.782 132.232 425.957 137.429C428.267 140.508 429.903 142.914 430.865 144.647L477.637 209.608H399.107C390.638 193.824 377.26 171.497 358.975 142.626H316.534V209.608H248.397C249.937 172.267 250.707 137.332 250.707 104.804C250.707 72.2752 249.937 37.3406 248.397 0H316.534V0.288712H375.721C414.601 0.288712 441.74 6.54422 457.138 19.0552C472.537 31.5662 480.236 48.5042 480.236 69.8692ZM316.534 55.7221V88.6357H355.51C371.871 88.6357 384.19 88.1545 392.466 87.1921C400.935 86.0373 406.806 84.305 410.078 81.9952C413.35 79.6855 414.986 76.3172 414.986 71.8902C414.986 67.6557 413.446 64.3836 410.366 62.0739C407.287 59.7641 401.512 58.1281 393.043 57.1657C384.574 56.2033 372.063 55.7221 355.51 55.7221H316.534Z" fill="#222222"/>
</svg>
